<svg width="800" height="450" viewBox="0 0 800 450" xmlns="http://www.w3.org/2000/svg">
  <defs>
    <linearGradient id="g_digital_marketing" x1="0%" y1="0%" x2="100%" y2="100%">
      <stop offset="0%" stop-color="#a855f7"/>
      <stop offset="100%" stop-color="#581c87"/>
    </linearGradient>
    <radialGradient id="g_digital_marketing_glow" cx="80%" cy="20%" r="60%">
      <stop offset="0%" stop-color="#ffffff" stop-opacity="0.22"/>
      <stop offset="100%" stop-color="#ffffff" stop-opacity="0"/>
    </radialGradient>
    <pattern id="g_digital_marketing_dots" width="26" height="26" patternUnits="userSpaceOnUse">
      <circle cx="2" cy="2" r="1.6" fill="#ffffff" fill-opacity="0.16"/>
    </pattern>
  </defs>

  <rect width="800" height="450" fill="url(#g_digital_marketing)"/>
  <rect width="800" height="450" fill="url(#g_digital_marketing_dots)"/>
  <rect width="800" height="450" fill="url(#g_digital_marketing_glow)"/>

  <circle cx="740" cy="-40" r="220" fill="#ffffff" opacity="0.06"/>
  <circle cx="-60" cy="490" r="200" fill="#000000" opacity="0.12"/>

  <!-- icon badge -->
  <circle cx="650" cy="150" r="80" fill="#ffffff" fill-opacity="0.14"/>
  <circle cx="650" cy="150" r="80" fill="none" stroke="#ffffff" stroke-opacity="0.35" stroke-width="2"/>
  
        <g transform="translate(650,150)" fill="none" stroke="#ffffff" stroke-width="11.399999999999999" stroke-linejoin="round" stroke-linecap="round">
          <path d="M -64.6 -11.399999999999999 L 11.399999999999999 -57.0 L 11.399999999999999 57.0 L -64.6 11.399999999999999 Z"/>
          <path d="M -64.6 -11.399999999999999 L -64.6 11.399999999999999 L -45.599999999999994 11.399999999999999 L -45.599999999999994 -11.399999999999999 Z" fill="#ffffff" stroke="none"/>
          <path d="M 11.399999999999999 -57.0 C 49.4 -57.0 68.39999999999999 -22.799999999999997 68.39999999999999 0 C 68.39999999999999 22.799999999999997 49.4 57.0 11.399999999999999 57.0" />
          <path d="M -41.8 15.2 L -30.4 57.0" />
        </g>

  <!-- category pill -->
  <rect x="28" y="30" width="183.5" height="34" rx="17" fill="#ffffff" fill-opacity="0.18"/>
  <text x="43" y="53" font-family="Arial, Helvetica, sans-serif" font-size="15" font-weight="700" fill="#ffffff" letter-spacing="0.5">DIGITAL MARKETING</text>

  <!-- title -->
  <text x="30" y="402" font-family="Arial, Helvetica, sans-serif" font-size="34" font-weight="800" fill="#ffffff">Digital Marketing</text>
  <rect x="30" y="420" width="70" height="5" rx="2.5" fill="#ffffff" fill-opacity="0.85"/>
</svg>